HIERARCHY
ROOT Hips
{
	OFFSET 0.000000 0.000000 0.000000
	CHANNELS 6 Xposition Yposition Zposition Zrotation Yrotation Xrotation 
	JOINT LowerBack
	{
		OFFSET 0.000000 0.000000 0.000000
		CHANNELS 3 Zrotation Yrotation Xrotation
		JOINT Spine
		{
			OFFSET 0.028270 2.035590 -0.193380
			CHANNELS 3 Zrotation Yrotation Xrotation
			JOINT Spine1
			{
				OFFSET 0.056720 2.048850 -0.042750
				CHANNELS 3 Zrotation Yrotation Xrotation
				JOINT Neck
				{
					OFFSET 0.000000 0.000000 0.000000
					CHANNELS 3 Zrotation Yrotation Xrotation
					JOINT Neck1
					{
						OFFSET -0.054170 1.746240 0.172020
						CHANNELS 3 Zrotation Yrotation Xrotation
						JOINT Head
						{
							OFFSET 0.104070 1.761360 -0.123970
							CHANNELS 3 Zrotation Yrotation Xrotation
							End Site
							{
								OFFSET 0.000000 0.000000 0.000000
							}
						}
					}
				}
				JOINT LeftShoulder
				{
					OFFSET 0.000000 0.000000 0.000000
					CHANNELS 3 Zrotation Yrotation Xrotation
					JOINT LeftArm
					{
						OFFSET 3.362410 1.200890 -0.311210
						CHANNELS 3 Zrotation Yrotation Xrotation
						JOINT LeftForeArm
						{
							OFFSET 4.983000 -0.000000 -0.000000
							CHANNELS 3 Zrotation Yrotation Xrotation
							JOINT LeftHand
							{
								OFFSET 3.483560 -0.000000 -0.000000
								CHANNELS 3 Zrotation Yrotation Xrotation
								JOINT LeftFingerBase
								{
									OFFSET 0.000000 0.000000 0.000000
									CHANNELS 3 Zrotation Yrotation Xrotation
									JOINT LeftHandIndex1
									{
										OFFSET 0.715260 -0.000000 -0.000000
										CHANNELS 3 Zrotation Yrotation Xrotation
										End Site
										{
											OFFSET 0.000000 0.000000 0.000000
										}
									}
								}
								JOINT LThumb
								{
									OFFSET 0.000000 0.000000 0.000000
									CHANNELS 3 Zrotation Yrotation Xrotation
									End Site
									{
										OFFSET 0.000000 0.000000 0.000000
									}
								}
							}
						}
					}
				}
				JOINT RightShoulder
				{
					OFFSET 0.000000 0.000000 0.000000
					CHANNELS 3 Zrotation Yrotation Xrotation
					JOINT RightArm
					{
						OFFSET -3.136600 1.374050 -0.404650
						CHANNELS 3 Zrotation Yrotation Xrotation
						JOINT RightForeArm
						{
							OFFSET -5.241900 -0.000000 -0.000000
							CHANNELS 3 Zrotation Yrotation Xrotation
							JOINT RightHand
							{
								OFFSET -3.444170 -0.000000 -0.000000
								CHANNELS 3 Zrotation Yrotation Xrotation
								JOINT RightFingerBase
								{
									OFFSET 0.000000 0.000000 0.000000
									CHANNELS 3 Zrotation Yrotation Xrotation
									JOINT RightHandIndex1
									{
										OFFSET -0.622530 -0.000000 -0.000000
										CHANNELS 3 Zrotation Yrotation Xrotation
										End Site
										{
											OFFSET 0.000000 0.000000 0.000000
										}
									}
								}
								JOINT RThumb
								{
									OFFSET 0.000000 0.000000 0.000000
									CHANNELS 3 Zrotation Yrotation Xrotation
									End Site
									{
										OFFSET 0.000000 0.000000 0.000000
									}
								}
							}
						}
					}
				}
			}
		}
	}
}
}
MOTION
Frames: 18
Frame Time: 0.008333
1.133930 17.058162 0.514363 154.926605 -78.429788 -139.802210 -5.171592 -0.884404 -10.069020 -1.451483 -0.717055 -3.525279 -6.753654 -0.431557 4.540819 9.491761 -12.638918 -9.736478 -3.108539 -0.213373 -0.589638 0.000000 0.000000 0.000000 11.969374 20.533283 -3.054629 -81.243219 -13.347981 24.439870 -179.098073 -41.024989 179.779737 24.037564 -55.513535 -13.975255 -0.542281 3.205228 -0.000000 0.000000 0.000000 0.000000 0.000000 0.000000 0.000000 -0.629957 -10.433506 -4.587340 89.252102 19.577959 36.190276 -178.056803 49.956748 179.754927 -40.211513 47.664954 -19.666727 0.918177 -2.260898 -0.000000 0.000000 0.000000 0.000000 0.000000 0.000000 0.000000 
1.099530 17.070708 0.505827 157.922035 -77.080371 -142.402183 -4.807139 -0.799694 -10.738175 -1.403607 -0.689122 -3.588338 -6.777058 -0.408614 4.812784 9.354725 -12.842298 -9.932120 -3.070866 -0.208469 -0.636879 0.000000 0.000000 0.000000 11.581972 21.305051 -3.166015 -80.431947 -14.448886 24.270185 -178.868921 -40.962176 179.786420 24.002638 -56.012457 -14.101744 -0.541013 3.232491 -0.000000 0.000000 0.000000 0.000000 0.000000 0.000000 0.000000 -0.698603 -10.757531 -4.689495 89.433274 20.145856 37.073751 -178.132630 50.166685 179.759777 -40.254810 47.357044 -19.553713 0.933223 -2.252034 -0.000000 0.000000 0.000000 0.000000 0.000000 0.000000 0.000000 
1.064935 17.085311 0.497631 160.523756 -75.678578 -144.583292 -4.395158 -0.707962 -11.422471 -1.352478 -0.660627 -3.663148 -6.810600 -0.385398 5.039282 9.210964 -13.060268 -10.083651 -3.045519 -0.205135 -0.671994 0.000000 0.000000 0.000000 11.288671 21.876647 -3.278829 -79.502853 -15.613255 23.905887 -178.658061 -40.881238 179.792311 23.891672 -56.568479 -14.197633 -0.534529 3.259394 -0.000000 0.000000 0.000000 0.000000 0.000000 0.000000 0.000000 -0.721552 -11.109458 -4.761396 89.572325 20.737888 37.931492 -178.221893 50.390868 179.764620 -40.312501 47.081124 -19.461728 0.947534 -2.243306 -0.000000 0.000000 0.000000 0.000000 0.000000 0.000000 0.000000 
1.030686 17.101644 0.489645 162.772904 -74.251065 -146.387145 -3.942877 -0.614143 -12.115536 -1.298880 -0.635684 -3.750399 -6.855505 -0.365960 5.209901 9.062846 -13.284849 -10.179777 -3.034112 -0.203652 -0.691982 0.000000 0.000000 0.000000 11.109545 22.205951 -3.387765 -78.429892 -16.825087 23.314583 -178.475641 -40.787809 179.797032 23.708297 -57.149870 -14.254323 -0.523169 3.284059 -0.000000 0.000000 0.000000 0.000000 0.000000 0.000000 0.000000 -0.698578 -11.480451 -4.798863 89.668969 21.341835 38.739016 -178.321727 50.627587 179.769253 -40.388516 46.854690 -19.400071 0.960441 -2.235098 -0.000000 0.000000 0.000000 0.000000 0.000000 0.000000 0.000000 
0.997789 17.119415 0.481841 164.701300 -72.822476 -147.857502 -3.465139 -0.525141 -12.803882 -1.244434 -0.619326 -3.849524 -6.911434 -0.355332 5.314551 8.917146 -13.507901 -10.209704 -3.038142 -0.204270 -0.694010 0.000000 0.000000 0.000000 11.066378 22.250713 -3.486280 -77.188452 -18.050334 22.455366 -178.333906 -40.686063 179.800200 23.470584 -57.724326 -14.271910 -0.507712 3.304307 -0.000000 0.000000 0.000000 0.000000 0.000000 0.000000 0.000000 -0.625485 -11.859641 -4.798222 89.716831 21.949594 39.478278 -178.428773 50.874923 179.773401 -40.490868 46.671330 -19.370049 0.972009 -2.227396 -0.000000 0.000000 0.000000 0.000000 0.000000 0.000000 0.000000 
0.966953 17.138249 0.474350 166.351004 -71.413539 -149.043653 -2.975230 -0.447732 -13.477106 -1.190660 -0.616737 -3.959898 -6.979568 -0.358530 5.346724 8.781907 -13.719284 -10.165575 -3.057728 -0.207077 -0.675996 0.000000 0.000000 0.000000 11.167363 21.985781 -3.568552 -75.740442 -19.259711 21.293094 -178.244447 -40.585757 179.801441 23.253025 -58.248926 -14.283363 -0.490858 3.317606 -0.000000 0.000000 0.000000 0.000000 0.000000 0.000000 0.000000 -0.501695 -12.233580 -4.757978 89.712674 22.552651 40.133971 -178.539048 51.127993 179.776802 -40.626335 46.523784 -19.371860 0.982347 -2.220215 -0.000000 0.000000 0.000000 0.000000 0.000000 0.000000 0.000000 
0.939070 17.157759 0.467190 167.751607 -70.042118 -149.988630 -2.493007 -0.388860 -14.118883 -1.139613 -0.632160 -4.079958 -7.057443 -0.379920 5.300688 8.669004 -13.912721 -10.040967 -3.092252 -0.212071 -0.636234 0.000000 0.000000 0.000000 11.426731 21.384980 -3.629489 -74.064937 -20.397770 19.794368 -178.223680 -40.497637 179.800254 23.152886 -58.677181 -14.336542 -0.475655 3.320771 -0.000000 0.000000 0.000000 0.000000 0.000000 0.000000 0.000000 -0.323058 -12.590873 -4.676717 89.648118 23.144469 40.690473 -178.649219 51.385109 179.779218 -40.804218 46.401540 -19.405305 0.991674 -2.213336 -0.000000 0.000000 0.000000 0.000000 0.000000 0.000000 0.000000 
0.913399 17.177418 0.460702 168.983576 -68.711348 -150.747484 -1.992664 -0.350248 -14.755511 -1.088661 -0.672173 -4.211667 -7.160485 -0.424686 5.189799 8.577405 -14.065498 -9.847248 -3.136224 -0.218619 -0.577650 0.000000 0.000000 0.000000 11.753107 20.533082 -3.666279 -72.019793 -21.550651 17.959329 -178.260651 -40.433932 179.796838 23.437766 -58.986979 -14.596674 -0.470775 3.314691 -0.000000 0.000000 0.000000 0.000000 0.000000 0.000000 0.000000 -0.111141 -12.907863 -4.565376 89.545445 23.708871 41.153172 -178.753809 51.641747 179.780679 -41.016831 46.301878 -19.465284 0.999809 -2.206570 -0.000000 0.000000 0.000000 0.000000 0.000000 0.000000 0.000000 
0.891782 17.197017 0.455006 170.035795 -67.438558 -151.351679 -1.520819 -0.341591 -15.340544 -1.042820 -0.739183 -4.349380 -7.276734 -0.496145 5.004429 8.532199 -14.181839 -9.575445 -3.188885 -0.226698 -0.498016 0.000000 0.000000 0.000000 12.198151 19.376977 -3.673987 -69.656840 -22.583280 15.750632 -178.378752 -40.415172 179.790784 24.123816 -59.177717 -15.074745 -0.474893 3.295122 -0.000000 0.000000 0.000000 0.000000 0.000000 0.000000 0.000000 0.157267 -13.182720 -4.419584 89.377885 24.252500 41.502433 -178.851165 51.896065 179.780889 -41.280490 46.204420 -19.551002 1.007323 -2.199438 -0.000000 0.000000 0.000000 0.000000 0.000000 0.000000 0.000000 
0.873863 17.216164 0.450375 170.961053 -66.226134 -151.843569 -1.067615 -0.363858 -15.882939 -1.001333 -0.836190 -4.492432 -7.414887 -0.596559 4.757630 8.541417 -14.251518 -9.237990 -3.243811 -0.235582 -0.400630 0.000000 0.000000 0.000000 12.692901 17.990107 -3.652212 -66.892476 -23.536824 13.180592 -178.570221 -40.469421 179.782375 25.383376 -59.247597 -15.879217 -0.492559 3.261875 -0.000000 0.000000 0.000000 0.000000 0.000000 0.000000 0.000000 0.473757 -13.404380 -4.247907 89.153969 24.766034 41.742028 -178.936992 52.143539 179.779878 -41.590646 46.100414 -19.655862 1.014224 -2.191485 -0.000000 0.000000 0.000000 0.000000 0.000000 0.000000 0.000000 
0.860050 17.234648 0.447165 171.786186 -65.080790 -152.260032 -0.644543 -0.421016 -16.369330 -0.965789 -0.965324 -4.637313 -7.575690 -0.728056 4.457305 8.621831 -14.271928 -8.843421 -3.296064 -0.244716 -0.287892 0.000000 0.000000 0.000000 13.208844 16.414481 -3.600545 -63.710645 -24.395761 10.254739 -178.829049 -40.632511 179.772127 27.238001 -59.236246 -17.032090 -0.522517 3.214101 -0.000000 0.000000 0.000000 0.000000 0.000000 0.000000 0.000000 0.847479 -13.569997 -4.055319 88.866977 25.251268 41.871227 -179.008732 52.380280 179.777632 -41.946782 45.974933 -19.772665 1.020752 -2.182169 -0.000000 0.000000 0.000000 0.000000 0.000000 0.000000 0.000000 
0.850711 17.252327 0.445438 172.528181 -64.008968 -152.627133 -0.266450 -0.515530 -16.785710 -0.938115 -1.126368 -4.780092 -7.756838 -0.890766 4.112515 8.792196 -14.248874 -8.402795 -3.340131 -0.253503 -0.162868 0.000000 0.000000 0.000000 13.725367 14.693056 -3.523451 -60.129395 -25.148610 6.995088 -179.147968 -40.962382 179.760576 29.633810 -59.152756 -18.496783 -0.561461 3.149501 -0.000000 0.000000 0.000000 0.000000 0.000000 0.000000 0.000000 1.289604 -13.685677 -3.845647 88.506028 25.709920 41.887921 -179.064079 52.598617 179.774136 -42.346729 45.813944 -19.893423 1.027118 -2.171036 -0.000000 0.000000 0.000000 0.000000 0.000000 0.000000 0.000000 
0.844900 17.268894 0.445405 173.228386 -63.013025 -152.967683 0.082583 -0.647503 -17.149369 -0.916910 -1.322248 -4.920593 -7.967451 -1.087263 3.739866 9.057648 -14.176561 -7.934709 -3.369075 -0.261194 -0.030512 0.000000 0.000000 0.000000 14.160071 12.912403 -3.419710 -56.049955 -25.855271 3.438506 -179.507326 -41.508877 179.748713 32.613633 -59.074257 -20.324810 -0.607161 3.069911 -0.000000 0.000000 0.000000 0.000000 0.000000 0.000000 0.000000 1.794268 -13.749491 -3.628984 88.082223 26.137411 41.806992 -179.100165 52.796337 179.769595 -42.773791 45.608795 -20.005236 1.033157 -2.157555 -0.000000 0.000000 0.000000 0.000000 0.000000 0.000000 0.000000 
0.843892 17.284588 0.447174 173.876710 -62.106565 -153.300825 0.358945 -0.824039 -17.420724 -0.906401 -1.551262 -5.052002 -8.188669 -1.317719 3.339147 9.444296 -14.074997 -7.446535 -3.380395 -0.267548 0.107000 0.000000 0.000000 0.000000 14.565293 11.068268 -3.301568 -51.637934 -26.432485 -0.384691 -179.898934 -42.365760 179.737337 35.900829 -59.017623 -22.346841 -0.648502 2.970474 -0.000000 0.000000 0.000000 0.000000 0.000000 0.000000 0.000000 2.391242 -13.780735 -3.404120 87.564968 26.546961 41.612503 -179.118275 52.969000 179.764015 -43.224831 45.357013 -20.104512 1.038733 -2.141528 -0.000000 0.000000 0.000000 0.000000 0.000000 0.000000 0.000000 
0.847462 17.299445 0.450851 174.487514 -61.298812 -153.636118 0.553609 -1.048044 -17.597447 -0.906907 -1.813910 -5.171666 -8.413607 -1.583580 2.919979 9.962453 -13.956618 -6.956489 -3.369953 -0.272119 0.244776 0.000000 0.000000 0.000000 14.928121 9.204717 -3.178006 -46.950447 -26.888237 -4.419748 179.698037 -43.629252 179.727325 39.355572 -59.016329 -24.492424 -0.678476 2.849833 -0.000000 0.000000 0.000000 0.000000 0.000000 0.000000 0.000000 3.085654 -13.793561 -3.175762 86.945866 26.941058 41.312618 -179.118099 53.108071 179.757498 -43.683930 45.037565 -20.173051 1.044192 -2.122632 -0.000000 0.000000 0.000000 0.000000 0.000000 0.000000 0.000000 
0.855301 17.313362 0.456192 175.072502 -60.595599 -153.976049 0.663803 -1.326426 -17.684883 -0.916546 -2.115844 -5.279567 -8.633026 -1.891702 2.485634 10.617621 -13.827163 -6.479203 -3.337718 -0.274878 0.379055 0.000000 0.000000 0.000000 15.270719 7.326860 -3.053280 -42.057386 -27.142186 -8.583017 179.301064 -45.364938 179.719354 42.987967 -59.138750 -26.812380 -0.692714 2.708671 -0.000000 0.000000 0.000000 0.000000 0.000000 0.000000 0.000000 3.883710 -13.791877 -2.946559 86.211379 27.327103 40.929759 -179.101357 53.200472 179.750009 -44.138184 44.585334 -20.173137 1.051543 -2.100315 -0.000000 0.000000 0.000000 0.000000 0.000000 0.000000 0.000000 
0.867934 17.326796 0.463409 175.618909 -60.010129 -154.320832 0.669671 -1.661742 -17.659200 -0.935515 -2.454424 -5.370558 -8.827999 -2.241075 2.037399 11.398114 -13.709550 -6.029124 -3.282755 -0.275648 0.505872 0.000000 0.000000 0.000000 15.633677 5.444715 -2.940088 -37.177873 -27.170764 -12.804375 178.939779 -47.699569 179.713866 46.538035 -59.358396 -29.141276 -0.684401 2.544040 -0.000000 0.000000 0.000000 0.000000 0.000000 0.000000 0.000000 4.777372 -13.797937 -2.722953 85.385297 27.705727 40.441110 -179.075287 53.280012 179.742425 -44.589429 44.134375 -20.167381 1.056924 -2.075836 -0.000000 0.000000 0.000000 0.000000 0.000000 0.000000 0.000000 
0.885125 17.339819 0.472351 176.121515 -59.549567 -154.661122 0.570406 -2.055939 -17.521360 -0.962029 -2.831213 -5.442135 -8.990050 -2.633438 1.582096 12.293527 -13.614898 -5.621545 -3.208968 -0.274642 0.621161 0.000000 0.000000 0.000000 16.070398 3.551702 -2.840410 -32.488267 -26.924037 -16.983339 178.646057 -50.712670 179.711138 49.966821 -59.660565 -31.459331 -0.654088 2.357908 -0.000000 0.000000 0.000000 0.000000 0.000000 0.000000 0.000000 5.761085 -13.822087 -2.507631 84.466014 28.083590 39.871904 -179.044776 53.334777 179.734790 -45.022586 43.624230 -20.120362 1.062525 -2.049159 -0.000000 0.000000 0.000000 0.000000 0.000000 0.000000 0.000000 
